# WaveFront *.obj file (generated by Autodesk ATF)

mtllib cfb6ed75-090f-4d0b-8a13-72f025e26fdd.mtl

g Body1

v 15.000000 1735.000000 900.000000
v 15.000000 1735.000000 1300.000000
v 20.000000 1735.000000 1300.000000
v 20.000000 1735.000000 900.000000
v 15.000000 1535.000000 1300.000000
v 20.000000 1535.000000 1300.000000
v 15.000000 1535.000000 900.000000
v 20.000000 1535.000000 900.000000
v -15.000000 1735.000000 1300.000000
v -15.000000 1735.000000 900.000000
v -20.000000 1735.000000 900.000000
v -20.000000 1735.000000 1300.000000
v -15.000000 1535.000000 1300.000000
v -20.000000 1535.000000 1300.000000
v -15.000000 1535.000000 900.000000
v -20.000000 1535.000000 900.000000
v 15.000000 1885.000000 0.000000
v -15.000000 1885.000000 0.000000
v -15.000000 1885.000000 2400.000000
v 15.000000 1885.000000 2400.000000
v 15.000000 -15.000000 0.000000
v 15.000000 -15.000000 2400.000000
v -15.000000 -15.000000 0.000000
v -15.000000 -15.000000 2400.000000
vt -40.000000 0.000000 0.000000
vt -0.000000 0.000000 0.000000
vt -40.000000 0.500000 0.000000
vt -0.000000 0.500000 0.000000
vt -20.000000 0.000000 0.000000
vt -0.000000 0.000000 0.000000
vt -20.000000 0.500000 0.000000
vt -0.000000 0.500000 0.000000
vt -40.000000 0.000000 0.000000
vt -0.000000 0.000000 0.000000
vt -40.000000 0.500000 0.000000
vt -0.000000 0.500000 0.000000
vt -20.000000 0.000000 0.000000
vt -0.000000 0.000000 0.000000
vt -20.000000 0.500000 0.000000
vt -0.000000 0.500000 0.000000
vt 20.000000 10.000000 0.000000
vt -20.000000 10.000000 0.000000
vt 20.000000 -10.000000 0.000000
vt -20.000000 -10.000000 0.000000
vt -0.000000 0.000000 0.000000
vt 40.000000 0.000000 0.000000
vt 0.000000 0.500000 0.000000
vt 40.000000 0.500000 0.000000
vt 0.000000 0.000000 0.000000
vt 20.000000 0.000000 0.000000
vt 0.000000 0.500000 0.000000
vt 20.000000 0.500000 0.000000
vt 0.000000 0.000000 0.000000
vt 40.000000 0.000000 0.000000
vt 0.000000 0.500000 0.000000
vt 40.000000 0.500000 0.000000
vt 0.000000 0.000000 0.000000
vt 20.000000 0.000000 0.000000
vt 0.000000 0.500000 0.000000
vt 20.000000 0.500000 0.000000
vt -20.000000 -10.000000 0.000000
vt 20.000000 -10.000000 0.000000
vt -20.000000 10.000000 0.000000
vt 20.000000 10.000000 0.000000
vt 0.000000 0.000000 0.000000
vt 3.000000 0.000000 0.000000
vt 0.000000 240.000000 0.000000
vt 3.000000 240.000000 0.000000
vt 175.000000 90.000000 0.000000
vt 190.000000 0.000000 0.000000
vt 175.000000 130.000000 0.000000
vt 190.000000 240.000000 0.000000
vt 155.000000 130.000000 0.000000
vt 0.000000 240.000000 0.000000
vt 0.000000 0.000000 0.000000
vt 155.000000 90.000000 0.000000
vt 0.000000 0.000000 0.000000
vt 3.000000 0.000000 0.000000
vt 0.000000 240.000000 0.000000
vt 3.000000 240.000000 0.000000
vt 35.000000 90.000000 0.000000
vt 15.000000 90.000000 0.000000
vt 0.000000 0.000000 0.000000
vt 15.000000 130.000000 0.000000
vt 0.000000 240.000000 0.000000
vt 35.000000 130.000000 0.000000
vt 190.000000 240.000000 0.000000
vt 190.000000 0.000000 0.000000
vt -1.500000 -95.000000 0.000000
vt 1.500000 -95.000000 0.000000
vt -1.500000 95.000000 0.000000
vt 1.500000 95.000000 0.000000
vt 1.500000 95.000000 0.000000
vt -1.500000 95.000000 0.000000
vt 1.500000 -95.000000 0.000000
vt -1.500000 -95.000000 0.000000
vn 0.000000 0.100000 0.000000
vn 0.000000 0.100000 0.000000
vn 0.000000 0.100000 0.000000
vn 0.000000 0.100000 0.000000
vn 0.000000 0.000000 0.100000
vn 0.000000 0.000000 0.100000
vn 0.000000 0.000000 0.100000
vn 0.000000 0.000000 0.100000
vn 0.000000 -0.100000 0.000000
vn 0.000000 -0.100000 0.000000
vn 0.000000 -0.100000 0.000000
vn 0.000000 -0.100000 0.000000
vn 0.000000 -0.000000 -0.100000
vn 0.000000 -0.000000 -0.100000
vn 0.000000 -0.000000 -0.100000
vn 0.000000 -0.000000 -0.100000
vn 0.100000 0.000000 0.000000
vn 0.100000 0.000000 0.000000
vn 0.100000 0.000000 0.000000
vn 0.100000 0.000000 0.000000
vn 0.000000 0.100000 0.000000
vn 0.000000 0.100000 0.000000
vn 0.000000 0.100000 0.000000
vn 0.000000 0.100000 0.000000
vn 0.000000 0.000000 0.100000
vn 0.000000 0.000000 0.100000
vn 0.000000 0.000000 0.100000
vn 0.000000 0.000000 0.100000
vn 0.000000 -0.100000 0.000000
vn 0.000000 -0.100000 0.000000
vn 0.000000 -0.100000 0.000000
vn 0.000000 -0.100000 0.000000
vn 0.000000 -0.000000 -0.100000
vn 0.000000 -0.000000 -0.100000
vn 0.000000 -0.000000 -0.100000
vn 0.000000 -0.000000 -0.100000
vn -0.100000 0.000000 0.000000
vn -0.100000 0.000000 0.000000
vn -0.100000 0.000000 0.000000
vn -0.100000 0.000000 0.000000
vn 0.000000 0.100000 0.000000
vn 0.000000 0.100000 0.000000
vn 0.000000 0.100000 0.000000
vn 0.000000 0.100000 0.000000
vn 0.100000 0.000000 0.000000
vn 0.100000 0.000000 0.000000
vn 0.100000 0.000000 0.000000
vn 0.100000 0.000000 0.000000
vn 0.100000 0.000000 0.000000
vn 0.100000 0.000000 0.000000
vn 0.100000 0.000000 0.000000
vn 0.100000 0.000000 0.000000
vn 0.000000 -0.100000 0.000000
vn 0.000000 -0.100000 0.000000
vn 0.000000 -0.100000 0.000000
vn 0.000000 -0.100000 0.000000
vn -0.100000 0.000000 0.000000
vn -0.100000 0.000000 0.000000
vn -0.100000 0.000000 0.000000
vn -0.100000 0.000000 0.000000
vn -0.100000 0.000000 0.000000
vn -0.100000 0.000000 0.000000
vn -0.100000 0.000000 0.000000
vn -0.100000 0.000000 0.000000
vn 0.000000 0.000000 0.100000
vn 0.000000 0.000000 0.100000
vn 0.000000 0.000000 0.100000
vn 0.000000 0.000000 0.100000
vn 0.000000 0.000000 -0.100000
vn 0.000000 0.000000 -0.100000
vn 0.000000 0.000000 -0.100000
vn 0.000000 0.000000 -0.100000
usemtl Steel_-_Satin
f 1/1/1 2/2/2 4/3/3
f 4/3/3 2/2/2 3/4/4
f 2/5/5 5/6/6 3/7/7
f 3/7/7 5/6/6 6/8/8
f 5/9/9 7/10/10 6/11/11
f 6/11/11 7/10/10 8/12/12
f 7/13/13 1/14/14 8/15/15
f 8/15/15 1/14/14 4/16/16
f 4/17/17 3/18/18 8/19/19
f 8/19/19 3/18/18 6/20/20
f 9/21/21 10/22/22 12/23/23
f 12/23/23 10/22/22 11/24/24
f 13/25/25 9/26/26 14/27/27
f 14/27/27 9/26/26 12/28/28
f 15/29/29 13/30/30 16/31/31
f 16/31/31 13/30/30 14/32/32
f 10/33/33 15/34/34 11/35/35
f 11/35/35 15/34/34 16/36/36
f 16/37/37 14/38/38 11/39/39
f 11/39/39 14/38/38 12/40/40
f 17/41/41 18/42/42 20/43/43
f 20/43/43 18/42/42 19/44/44
f 1/45/45 17/46/46 2/47/47
f 2/47/47 17/46/46 20/48/48
f 2/47/47 20/48/48 5/49/49
f 5/49/49 20/48/48 22/50/50
f 5/49/49 22/50/50 21/51/51
f 1/45/45 7/52/52 17/46/46
f 17/46/46 7/52/52 21/51/51
f 21/51/51 7/52/52 5/49/49
f 23/53/53 21/54/54 24/55/55
f 24/55/55 21/54/54 22/56/56
f 15/57/57 10/58/58 18/59/59
f 18/59/59 10/58/58 9/60/60
f 18/59/59 9/60/60 19/61/61
f 19/61/61 9/60/60 13/62/62
f 19/61/61 13/62/62 24/63/63
f 24/63/63 13/62/62 23/64/64
f 23/64/64 13/62/62 15/57/57
f 23/64/64 15/57/57 18/59/59
f 24/65/65 22/66/66 19/67/67
f 19/67/67 22/66/66 20/68/68
f 18/69/69 17/70/70 23/71/71
f 23/71/71 17/70/70 21/72/72
# 24 vertices
# 72 texture params
# 72 normals
# 44 facets

# 1 groups
